<?xml version="1.0" encoding="UTF-8"?>
<svg version="1.1" xmlns="http://www.w3.org/2000/svg" width="512" height="512">
<path d="M0 0 C1.18571877 -0.00538554 2.37143755 -0.01077108 3.5930872 -0.01631981 C6.85775339 -0.02808783 10.12208872 -0.02655818 13.38675737 -0.019153 C16.9178452 -0.01440132 20.44887956 -0.02694866 23.97994995 -0.03717041 C30.88683852 -0.05432386 37.79363597 -0.05520575 44.7005403 -0.04995751 C50.31616751 -0.04590867 55.93176787 -0.04736781 61.5473938 -0.05270576 C62.74831275 -0.0538284 62.74831275 -0.0538284 63.97349268 -0.05497371 C65.60015004 -0.05650525 67.22680738 -0.0580436 68.85346472 -0.05958868 C84.09056092 -0.07330083 99.32760571 -0.06788473 114.56470072 -0.05640347 C128.49272493 -0.04646903 142.42061633 -0.05941765 156.34862006 -0.08333766 C170.66625586 -0.10774075 184.98382984 -0.11733377 199.30148602 -0.11068493 C207.33328299 -0.10719584 215.36497782 -0.10940448 223.39675903 -0.12693596 C230.23275927 -0.14167294 237.06858538 -0.14227374 243.90458226 -0.12486505 C247.38945823 -0.11636553 250.87402333 -0.11417947 254.3588829 -0.1295166 C258.14303091 -0.14271443 261.92633724 -0.13118791 265.71044922 -0.11352539 C266.80287461 -0.1231304 267.89530001 -0.1327354 269.0208292 -0.14263147 C278.34086762 -0.05329946 286.39597865 2.21406826 293.32397461 8.68455505 C299.21124662 15.23264331 302.10175492 22.26110105 302.11249352 31.09789753 C302.11599959 31.75045972 302.11950566 32.40302191 302.12311798 33.07535872 C302.13241253 35.2592481 302.1275138 37.44286968 302.12265015 39.62677002 C302.12638739 41.20945966 302.13098921 42.79214746 302.13638079 44.37483233 C302.14861702 48.72212624 302.14834959 53.06934322 302.14599204 57.41665041 C302.14558403 62.10593453 302.15662147 66.79519394 302.16610718 71.48446655 C302.18272143 80.67089185 302.18821691 89.85729147 302.18933193 99.04373053 C302.19028218 106.51061989 302.19439131 113.97750076 302.20073318 121.44438744 C302.21834655 142.61296278 302.22757188 163.78151785 302.22607224 184.95010058 C302.22599232 186.09134995 302.22591241 187.23259932 302.22583008 188.40843201 C302.22574832 189.55107428 302.22566656 190.69371655 302.22558232 191.87098434 C302.22476933 210.39115604 302.24390995 228.91124643 302.27210681 247.43139461 C302.30082867 266.44635249 302.3146475 285.4612707 302.31291926 304.47625083 C302.31225513 315.15229106 302.31775754 325.82824604 302.33927536 336.50426674 C302.35747792 345.59369791 302.36184206 354.68300518 302.34825651 363.77244667 C302.34172228 368.40952525 302.34162611 373.04636607 302.35896301 377.68342209 C302.37467858 381.9305199 302.37184569 386.17719115 302.35439475 390.42427846 C302.35132151 391.95857131 302.35496947 393.49289588 302.3661149 395.02715132 C302.4216998 403.22336548 302.17725289 410.19130071 297.85522461 417.38768005 C297.38600586 418.1972113 296.91678711 419.00674255 296.43334961 419.84080505 C291.49703301 426.51935105 285.82664286 430.1085815 277.85522461 432.38768005 C274.36828041 432.63377571 274.36828041 432.63377571 270.45205688 432.62818909 C269.72822512 432.62989794 269.00439336 432.63160679 268.2586273 432.63336742 C265.84492335 432.63664899 263.43150039 432.62568081 261.01782227 432.61473083 C259.28296922 432.61416643 257.5481157 432.61448385 255.81326294 432.61561584 C251.11124688 432.61618922 246.40933304 432.60443727 241.70734072 432.59046793 C236.7906067 432.57795814 231.87387028 432.57678987 226.9571228 432.57441711 C217.64998383 432.56820308 208.3428919 432.55179328 199.03577363 432.53171813 C188.43850293 432.50935676 177.84122997 432.4983651 167.24394155 432.48832726 C145.44767632 432.46742701 123.65145343 432.4322525 101.85522461 432.38768005 C101.87617188 433.69962341 101.89711914 435.01156677 101.91870117 436.36326599 C101.99110431 441.23099349 102.03702574 446.0986734 102.07495117 450.96678162 C102.09506587 453.07363387 102.12236128 455.18043031 102.15698242 457.28709412 C102.20550629 460.31555452 102.22819477 463.34327684 102.24584961 466.37205505 C102.26649475 467.3138562 102.28713989 468.25565735 102.30841064 469.22599792 C102.31064224 475.73051713 102.31064224 475.73051713 100.06518555 478.97068787 C97.3893257 480.6864071 95.14768481 481.13296186 91.97338867 480.95701599 C89.40037474 480.26542211 88.17573379 479.26132769 86.21459961 477.46580505 C85.52205078 476.83247253 84.82950195 476.19914001 84.1159668 475.5466156 C79.96225473 471.57995514 75.89611546 467.53141774 71.85522461 463.45018005 C70.98510742 462.57555115 70.11499023 461.70092224 69.21850586 460.79978943 C67.09508911 458.66470556 64.97406083 456.527308 62.85522461 454.38768005 C58.96478828 455.96563921 56.37827093 458.62322386 53.50366211 461.5790863 C53.00355621 462.08439377 52.50345032 462.58970123 51.9881897 463.11032104 C50.39735518 464.7189109 48.81339377 466.33404825 47.23022461 467.95018005 C45.63904685 469.56898243 44.0464276 471.18629826 42.45083618 472.80075073 C41.45975363 473.80408433 40.47135653 474.81007914 39.4859314 475.81896973 C35.54249495 479.81996843 33.58752404 480.50129853 27.92553711 480.8134613 C24.71873268 480.1539487 23.79150889 479.04364742 21.85522461 476.38768005 C21.28979439 473.04825444 21.39054292 469.75041297 21.46459961 466.37205505 C21.4702594 465.40108887 21.47591919 464.43012268 21.48175049 463.42973328 C21.5041215 460.33187836 21.55431988 457.23518472 21.60522461 454.13768005 C21.62528864 452.03613427 21.64353958 449.93457034 21.65991211 447.83299255 C21.70398881 442.68410836 21.77302203 437.53609102 21.85522461 432.38768005 C20.88810547 432.40862732 19.92098633 432.42957458 18.92456055 432.45115662 C15.279208 432.52446854 11.63391814 432.56980471 7.98803711 432.60740662 C6.42086775 432.62731737 4.85377063 432.65445641 3.28686523 432.68943787 C-13.3212341 433.0504835 -25.43010239 429.6397782 -37.89477539 418.07518005 C-48.46250717 406.90927478 -50.60171283 394.62775681 -50.53245544 379.75074768 C-50.53663428 378.28223638 -50.5421148 376.81372831 -50.54877526 375.34522617 C-50.56317659 371.33196171 -50.55900187 367.31890355 -50.55160844 363.30562806 C-50.54686586 358.96877274 -50.55939626 354.63196135 -50.56962585 350.29512024 C-50.58679793 341.80739751 -50.58765716 333.31974886 -50.58241295 324.83201326 C-50.578367 317.93112637 -50.57981986 311.03026132 -50.58516121 304.12937546 C-50.58590963 303.14616643 -50.58665805 302.1629574 -50.58742915 301.14995416 C-50.58896068 299.15238627 -50.59049902 297.15481839 -50.59204412 295.15725051 C-50.60576345 276.43591669 -50.6003355 257.7146247 -50.58885891 238.99329184 C-50.57892746 221.87863072 -50.59186669 204.76407772 -50.6157931 187.64943327 C-50.64019523 170.06153449 -50.64978921 152.47368605 -50.64314038 134.88577068 C-50.63965059 125.01732735 -50.64186432 115.14896716 -50.6593914 105.28053665 C-50.6741273 96.8796826 -50.67473068 88.47897024 -50.65732049 80.07811894 C-50.6488195 75.7950605 -50.64663879 71.51225502 -50.66197205 67.2292099 C-50.67585616 63.30221832 -50.67100867 59.37569553 -50.65173281 55.44873081 C-50.64798384 54.03429125 -50.65086274 52.6198138 -50.66134446 51.20540811 C-50.76905574 35.54738991 -46.48745633 24.12215574 -35.83227539 12.63768005 C-25.51941185 2.87729135 -13.85372746 -0.07621713 0 0 Z M-26.51977539 27.63768005 C-34.1550943 37.41434902 -34.29517871 48.75021978 -34.26502991 60.58065796 C-34.26588433 61.80762109 -34.26673876 63.03458422 -34.26761907 64.29872805 C-34.26897859 67.69200483 -34.26586399 71.08522359 -34.26084101 74.47849333 C-34.25651444 78.14234452 -34.2579845 81.80619398 -34.25874329 85.470047 C-34.25926712 91.81382609 -34.25613497 98.15759488 -34.25050545 104.50137138 C-34.24237145 113.67335786 -34.23977328 122.84533936 -34.23851746 132.01732904 C-34.23632993 146.8990016 -34.22967793 161.78066868 -34.22021484 176.66233826 C-34.211033 191.11676506 -34.20395594 205.57119037 -34.19970703 220.02561951 C-34.19944431 220.91689212 -34.19918158 221.80816473 -34.1989109 222.72644561 C-34.19760584 227.19778846 -34.19634214 231.66913133 -34.195099 236.1404742 C-34.18473569 273.22288003 -34.16712549 310.30527961 -34.14477539 347.38768005 C-33.56211914 347.0009613 -32.97946289 346.61424255 -32.37915039 346.21580505 C-21.68812345 339.42464958 -12.00200247 336.78165329 0.61151123 336.86869812 C1.83866293 336.86119687 3.06581463 336.85369562 4.33015275 336.84596705 C7.70100926 336.82930058 11.07099488 336.83021266 14.44182301 336.83887458 C18.08995502 336.84385083 21.73798446 336.82569581 25.38607788 336.81045532 C31.69486662 336.78721602 38.00354065 336.77839154 44.3123703 336.7795639 C53.43367145 336.78123775 62.55482032 336.76085162 71.67608073 336.7352086 C86.47732439 336.69419053 101.27854054 336.6708307 116.07983398 336.65867615 C130.45160565 336.64683626 144.82332558 336.62661757 159.19506836 336.59519958 C160.08204036 336.59326348 160.96901236 336.59132738 161.8828623 336.58933261 C166.33286823 336.57956758 170.78287378 336.56963855 175.23287916 336.55962801 C212.10697024 336.47688952 248.98105899 336.42285106 285.85522461 336.38768005 C285.9239025 297.81308584 285.97675938 259.23850084 286.0084206 220.66385785 C286.01217268 216.10898924 286.01605565 211.55412075 286.02001953 206.99925232 C286.02080646 206.09246622 286.02159339 205.18568013 286.02240417 204.25141566 C286.0354554 189.57199544 286.0591077 174.89261049 286.086683 160.21321119 C286.11474504 145.14897462 286.13140256 130.08475651 286.13749009 115.02049488 C286.14160487 105.72625786 286.15459762 96.43212055 286.17897401 87.13791423 C286.19484106 80.76312373 286.19962277 74.38838473 286.19572874 68.01357592 C286.1938087 64.33653375 286.19673648 60.65966572 286.21284103 56.98265457 C286.23019129 52.99198505 286.22417753 49.00168508 286.21598816 45.01098633 C286.22472668 43.85435362 286.23346521 42.69772091 286.24246854 41.50603873 C286.20473808 34.70378331 286.04362972 27.34708098 281.58026665 21.80442148 C275.03487214 15.79507114 267.08951181 16.09765466 258.7612915 16.13371277 C257.65234551 16.13059279 256.54339952 16.12747281 255.4008491 16.12425828 C251.68929762 16.11628859 247.97791009 16.12259811 244.26635742 16.12889099 C241.60339886 16.12618061 238.94045155 16.12269163 236.27749634 16.11827087 C229.7969978 16.10938493 223.31654564 16.11129567 216.8360453 16.11709616 C211.5659936 16.12161734 206.29595488 16.12222357 201.02590179 16.12004852 C199.89974098 16.11958882 199.89974098 16.11958882 198.75082944 16.11911984 C197.22547922 16.11848036 195.700129 16.11783194 194.17477879 16.11717466 C179.87524477 16.1114733 165.5757364 16.11802539 151.27620658 16.12877539 C139.02128306 16.13770342 126.76639744 16.13616465 114.51147461 16.12693787 C100.26846656 16.1162192 86.02548103 16.11203028 71.78246951 16.11816239 C70.26158317 16.11879946 68.74069683 16.1194282 67.21981049 16.12004852 C66.09747262 16.12051135 66.09747262 16.12051135 64.95246126 16.12098353 C59.69416513 16.12270623 54.43588333 16.11980439 49.17758942 16.11508942 C42.76136285 16.10946251 36.34518518 16.11103462 29.92896417 16.1216509 C26.6587406 16.12688449 23.3886146 16.12791608 20.11838913 16.1223526 C16.56454311 16.11686531 13.01092396 16.12377013 9.45709229 16.13371277 C8.43557044 16.12925133 7.4140486 16.12478988 6.36157155 16.12019324 C-6.29918228 16.18861544 -17.49239697 18.06730142 -26.51977539 27.63768005 Z M-26.51977539 363.63768005 C-32.98440726 372.06741309 -34.30825937 380.95230827 -33.14477539 391.38768005 C-31.24801425 399.53589656 -26.77372653 405.94878062 -20.07836914 410.9228363 C-10.72396196 416.66266038 -0.12503945 416.68116944 10.54272461 416.51268005 C14.27584961 416.47143005 18.00897461 416.43018005 21.85522461 416.38768005 C21.85522461 408.46768005 21.85522461 400.54768005 21.85522461 392.38768005 C15.40877058 392.17789683 15.40877058 392.17789683 8.96142578 391.9997406 C7.75450073 391.95007141 7.75450073 391.95007141 6.52319336 391.8993988 C5.2899231 391.86012268 5.2899231 391.86012268 4.03173828 391.8200531 C1.39672102 391.2965965 0.4845785 390.48735625 -1.14477539 388.38768005 C-1.54321289 386.45018005 -1.54321289 386.45018005 -1.51977539 384.38768005 C-1.52750977 383.70705505 -1.53524414 383.02643005 -1.54321289 382.32518005 C-1.02130396 379.78726998 -0.15280042 378.99925115 1.85522461 377.38768005 C3.86584759 377.01163256 3.86584759 377.01163256 6.21403503 377.01015663 C7.55784351 376.99842177 7.55784351 376.99842177 8.92879963 376.98644984 C9.91409751 376.993142 10.89939539 376.99983417 11.91455078 377.00672913 C13.48330475 376.99970917 13.48330475 376.99970917 15.08375072 376.99254739 C18.60535874 376.98053457 22.12658212 376.99007932 25.64819336 376.99949646 C28.16590605 376.99543356 30.68361696 376.99009327 33.20132446 376.98356628 C39.34015679 376.97127907 45.47884553 376.97311579 51.61767983 376.98180421 C56.60567392 376.98857227 61.59363716 376.98950128 66.58163452 376.98623276 C67.29085436 376.98577306 68.0000742 376.98531336 68.73078555 376.98483973 C70.17143576 376.98388058 71.61208597 376.98290794 73.05273616 376.98192196 C86.56991929 376.97336203 100.08704143 376.98321162 113.60421455 376.99932306 C125.20907397 377.0127268 136.81384337 377.01039887 148.41870117 376.99656677 C161.8866604 376.98052157 175.35456615 376.97418606 188.82253361 376.98340356 C190.25796063 376.98435924 191.69338766 376.98530235 193.1288147 376.98623276 C194.18827239 376.986927 194.18827239 376.986927 195.26913327 376.98763526 C200.25262654 376.99022834 205.23608595 376.98584733 210.21957397 376.9787941 C216.92378826 376.9695143 223.62780581 376.97609665 230.33201218 376.99347687 C232.79796439 376.99745624 235.26393087 376.99628306 237.72987747 376.98968887 C241.0854141 376.98154064 244.44039746 376.99171372 247.79589844 377.00672913 C248.78119632 377.00003696 249.7664942 376.9933448 250.78164959 376.98644984 C252.12545806 376.9981847 252.12545806 376.9981847 253.49641418 377.01015663 C254.27131604 377.01064369 255.0462179 377.01113075 255.84460163 377.01163256 C258.3884099 377.48740188 259.27739517 378.3752033 260.85522461 380.38768005 C261.25366211 382.32518005 261.25366211 382.32518005 261.23022461 384.38768005 C261.23795898 385.06830505 261.24569336 385.74893005 261.25366211 386.45018005 C260.71882456 389.0509587 259.97906395 389.79140987 257.85522461 391.38768005 C255.04977131 391.77244091 255.04977131 391.77244091 251.57209778 391.78640747 C250.25536575 391.79894562 248.93863373 391.81148376 247.58200073 391.82440186 C246.11944555 391.82322774 244.65689058 391.82176856 243.19433594 391.8200531 C241.65695912 391.82906744 240.11958952 391.83939385 238.58222961 391.85093689 C234.40483569 391.87857173 230.22757789 391.88780016 226.05010438 391.89379096 C221.68582886 391.90315782 217.32165571 391.92935977 212.95744324 391.95379639 C204.69147662 391.99751168 196.42552981 392.0260277 188.15948266 392.04911977 C178.74961805 392.07614453 169.33985615 392.12005767 159.9300648 392.16540849 C140.57183707 392.25832679 121.2135854 392.32937551 101.85522461 392.38768005 C101.85522461 400.30768005 101.85522461 408.22768005 101.85522461 416.38768005 C123.60424743 416.45717985 145.35324342 416.51069102 167.102355 416.54311657 C177.20125043 416.55857368 187.30007551 416.57964112 197.39892578 416.61399841 C206.20291491 416.64393614 215.00685307 416.66326346 223.81089169 416.66994554 C228.47090499 416.67385038 233.13077255 416.68300324 237.79073906 416.70487022 C242.18115107 416.72530448 246.57135792 416.73149987 250.96181297 416.7270031 C252.56898871 416.7278252 254.17617165 416.73374942 255.78330612 416.74529648 C268.83495482 417.22900023 268.83495482 417.22900023 280.42356014 412.11264324 C286.50043079 405.56619778 286.13559823 397.55820821 286.05053711 389.2040863 C286.04770721 388.14858078 286.04487732 387.09307526 286.04196167 386.00558472 C286.03081876 382.65366501 286.00572485 379.30201821 285.98022461 375.95018005 C285.97018721 373.66958497 285.96106269 371.38898567 285.95288086 369.10838318 C285.93089873 363.53472327 285.89747998 357.96122117 285.85522461 352.38768005 C249.35297213 352.34187656 212.8507247 352.30664762 176.34844939 352.28554939 C172.03649877 352.28304806 167.7245482 352.28045941 163.41259766 352.27781677 C162.55418602 352.27729215 161.69577438 352.27676753 160.81135026 352.27622701 C146.92220732 352.26753052 133.03308097 352.25176471 119.14394786 352.23337446 C104.88652932 352.21465438 90.62911946 352.20355887 76.37168914 352.19950306 C67.57804523 352.19676238 58.78444824 352.18811413 49.99081878 352.17184712 C43.95615396 352.16125422 37.92151332 352.15808464 31.88683989 352.1606773 C28.40806225 352.161955 24.92936647 352.16003195 21.45060349 352.1492691 C17.67087686 352.13928905 13.89134948 352.14172252 10.11161804 352.14717102 C9.02306619 352.14134534 7.93451434 352.13551965 6.81297606 352.12951744 C-6.0182042 352.17936041 -17.35334464 353.91988505 -26.51977539 363.63768005 Z M37.85522461 392.38768005 C37.85522461 411.85768005 37.85522461 431.32768005 37.85522461 451.38768005 C42.88113777 447.07975449 47.51611938 442.81207906 52.11108398 438.09275818 C55.36478995 434.78413734 56.81051468 433.53177797 61.48022461 432.88768005 C67.22281118 433.00108841 70.03667649 436.46194462 73.85522461 440.38768005 C74.82523155 441.36037958 75.79667308 442.33164988 76.76928711 443.30174255 C78.27517952 444.80375568 79.77660797 446.30867797 81.26269531 447.83030701 C82.44252675 449.03368881 83.64668925 450.21312811 84.85522461 451.38768005 C85.18522461 451.38768005 85.51522461 451.38768005 85.85522461 451.38768005 C85.85522461 431.91768005 85.85522461 412.44768005 85.85522461 392.38768005 C70.01522461 392.38768005 54.17522461 392.38768005 37.85522461 392.38768005 Z " fill="#000000" transform="translate(130.144775390625,15.612319946289063)"/>
<path d="M0 0 C5.35065091 4.32835302 9.85347326 8.51291047 12.82373047 14.82470703 C14.0338397 17.15322723 14.0338397 17.15322723 16.26123047 18.69970703 C20.88187892 19.71646679 25.65504713 19.51911837 30.36279297 19.55517578 C46.14357553 19.75968496 60.59448716 27.92059669 71.59716797 38.79736328 C75.52498268 43.07649279 78.48527372 47.61565142 81.26123047 52.69970703 C81.65826172 53.37517578 82.05529297 54.05064453 82.46435547 54.74658203 C89.73967925 67.88559961 90.65060278 86.07083461 87.26123047 100.57470703 C86.42138672 103.00439453 86.42138672 103.00439453 85.26123047 105.69970703 C85.00841309 106.29944336 84.7555957 106.89917969 84.49511719 107.51708984 C77.88000898 122.87372474 68.31383843 134.24372577 53.09765625 141.7956543 C52.37877228 142.15305191 51.65988831 142.51044952 50.91921997 142.87867737 C50.37208344 143.14961716 49.8249469 143.42055695 49.26123047 143.69970703 C49.25758484 144.52132324 49.25393921 145.34293945 49.25018311 146.18945312 C49.21221305 153.95734759 49.155259 161.72476722 49.07732773 169.49235535 C49.03792871 173.48515391 49.00570345 177.47773445 48.99023438 181.47070312 C48.97501734 185.32892285 48.94048391 189.18654288 48.89292145 193.04449463 C48.87815931 194.51152311 48.87019243 195.97863724 48.86934662 197.44573975 C48.85874144 206.62253865 48.61184426 213.7349907 42.29638672 220.94189453 C41.64541016 221.48072266 40.99443359 222.01955078 40.32373047 222.57470703 C39.67533203 223.12900391 39.02693359 223.68330078 38.35888672 224.25439453 C34.11839466 227.17614884 30.42916059 227.95055126 25.32292175 227.96713257 C24.13279984 227.97566254 22.94267792 227.9841925 21.7164917 227.99298096 C20.41923157 227.99207458 19.12197144 227.99116821 17.78540039 227.99023438 C16.39864236 227.99622201 15.01188767 228.0030281 13.62513733 228.0105896 C9.86466773 228.02823414 6.10428919 228.03294435 2.34378219 228.03422117 C-0.00798564 228.03564434 -2.35973044 228.0399171 -4.71149254 228.04521561 C-12.9228296 228.06371159 -21.13410179 228.07188686 -29.34545898 228.0703125 C-36.98846312 228.06911159 -44.63118465 228.09020498 -52.27411729 228.12179983 C-58.84500285 228.1479908 -65.41579628 228.1586786 -71.98673362 228.15740168 C-75.90723498 228.15689282 -79.82748517 228.16253337 -83.74793434 228.18375778 C-87.43757016 228.2031877 -91.12671646 228.2032327 -94.81637001 228.18872452 C-96.80675261 228.18565186 -98.7971355 228.20228004 -100.78744507 228.21960449 C-109.01212926 228.1620392 -114.62054737 227.30853237 -120.98095703 221.73486328 C-121.78919922 220.75839844 -121.78919922 220.75839844 -122.61376953 219.76220703 C-123.16806641 219.11380859 -123.72236328 218.46541016 -124.29345703 217.79736328 C-127.39384789 213.29760682 -127.99645618 209.39443883 -128.05761719 203.98168945 C-128.06766281 203.32747009 -128.07770844 202.67325073 -128.08805847 201.99920654 C-128.11878403 199.85120468 -128.13589549 197.70332684 -128.15283203 195.55517578 C-128.17155228 194.06015463 -128.19112634 192.56514395 -128.21151733 191.07014465 C-128.26275416 187.14606917 -128.30242488 183.22195947 -128.33966064 179.29772949 C-128.37975345 175.28905836 -128.43082166 171.28052855 -128.48095703 167.27197266 C-128.5776162 159.41464748 -128.66205277 151.55725211 -128.73876953 143.69970703 C-130.08674118 142.98558403 -130.08674118 142.98558403 -131.46194458 142.2570343 C-132.64950912 141.6238889 -133.83699481 140.99059558 -135.02441406 140.35717773 C-135.91136711 139.88804333 -135.91136711 139.88804333 -136.8162384 139.40943146 C-151.10279356 131.77049661 -160.14214952 118.6529054 -165.73876953 103.69970703 C-170.87707969 86.348238 -168.7438549 67.04155853 -160.19897461 51.28198242 C-150.90285453 35.22429537 -136.56485061 25.88335022 -118.96923828 20.55908203 C-115.1452364 19.63220235 -111.60086238 19.63648108 -107.68579102 19.72900391 C-99.82061834 19.95595346 -99.82061834 19.95595346 -93.07861328 16.50830078 C-91.13120734 13.71160902 -91.13120734 13.71160902 -89.45751953 10.68017578 C-83.07389388 -0.38961143 -69.10875068 -7.61551524 -57.17626953 -11.30029297 C-37.21361632 -15.47159364 -16.44158129 -12.29540325 0 0 Z M-76.14501953 20.76220703 C-84.10986735 30.44496321 -86.71442338 40.68484844 -88.11376953 52.91455078 C-88.78438346 55.90297411 -89.22391903 56.99403297 -91.73876953 58.69970703 C-93.67626953 59.09814453 -93.67626953 59.09814453 -95.73876953 59.07470703 C-96.75970703 59.08630859 -96.75970703 59.08630859 -97.80126953 59.09814453 C-100.34207891 58.57563938 -101.13174861 57.71613499 -102.73876953 55.69970703 C-103.0793457 53.61499023 -103.0793457 53.61499023 -103.03173828 51.25048828 C-103.01723633 49.97915039 -103.01723633 49.97915039 -103.00244141 48.68212891 C-102.97730469 47.80105469 -102.95216797 46.91998047 -102.92626953 46.01220703 C-102.9059668 44.67319336 -102.9059668 44.67319336 -102.88525391 43.30712891 C-102.84991032 41.10404537 -102.80057446 38.90218121 -102.73876953 36.69970703 C-116.38186041 35.8209937 -126.42668498 40.69309898 -136.70361328 49.35595703 C-145.94107239 57.92637861 -150.67464539 68.75166889 -151.14135742 81.21142578 C-151.3644453 96.31275897 -146.72276872 107.35182937 -136.42626953 118.44970703 C-125.42111699 128.86529783 -113.62467521 131.17239174 -99.04345703 130.88720703 C-95.61145241 130.77365355 -92.26539944 130.43421218 -88.86376953 129.94970703 C-85.69736938 129.58393322 -85.01822455 129.54667214 -82.11376953 131.13720703 C-80.04780663 134.98741061 -80.18591886 137.34600797 -80.73876953 141.69970703 C-83.62470314 145.30712404 -88.37175797 145.86138038 -92.73876953 146.69970703 C-96.0694988 147.04816284 -99.39302316 147.20094257 -102.73876953 147.32470703 C-105.70876953 147.44845703 -108.67876953 147.57220703 -111.73876953 147.69970703 C-111.73876953 158.25970703 -111.73876953 168.81970703 -111.73876953 179.69970703 C-64.21876953 179.69970703 -16.69876953 179.69970703 32.26123047 179.69970703 C32.26123047 169.13970703 32.26123047 158.57970703 32.26123047 147.69970703 C27.86810547 147.54501953 27.86810547 147.54501953 23.38623047 147.38720703 C6.16606217 146.60453873 6.16606217 146.60453873 1.26123047 141.69970703 C0.8490444 137.440451 0.61237042 134.90894621 2.63623047 131.13720703 C6.12191748 129.22837843 8.16810432 129.77852066 12.02685547 130.32080078 C27.1124447 132.08807392 40.47685909 131.05588918 52.94873047 121.60205078 C63.68085109 112.77343128 69.77911471 102.44392069 72.01123047 88.57470703 C73.0876043 77.08686274 69.89534283 65.32809787 63.07373047 56.07470703 C55.1459519 46.52763753 45.67385171 39.13790049 33.26123047 36.69970703 C29.91831462 36.55693154 26.6042105 36.59939052 23.26123047 36.69970703 C23.28479614 37.53949097 23.28479614 37.53949097 23.30883789 38.39624023 C23.37122895 40.93479293 23.41023265 43.47318432 23.44873047 46.01220703 C23.47386719 46.89328125 23.49900391 47.77435547 23.52490234 48.68212891 C23.5394043 49.9534668 23.5394043 49.9534668 23.55419922 51.25048828 C23.57776489 52.42091675 23.57776489 52.42091675 23.60180664 53.61499023 C23.17423303 56.23223112 22.32807555 57.09188101 20.26123047 58.69970703 C18.32373047 59.09814453 18.32373047 59.09814453 16.26123047 59.07470703 C15.24029297 59.08630859 15.24029297 59.08630859 14.19873047 59.09814453 C11.5219778 58.5476833 10.8058076 57.98279918 9.26123047 55.69970703 C8.66172256 52.98599248 8.20158273 50.38048552 7.82373047 47.63720703 C5.36029329 32.19360084 -1.02243868 21.18517858 -13.73876953 11.69970703 C-34.91183095 -0.9017827 -59.20448575 2.86277511 -76.14501953 20.76220703 Z M-111.73876953 195.69970703 C-111.99190198 203.50688614 -111.99190198 203.50688614 -108.73876953 209.69970703 C-105.184726 211.49315413 -102.27121699 211.95169244 -98.3184967 211.96040344 C-97.24328262 211.96748825 -96.16806854 211.97457306 -95.06027222 211.98187256 C-93.89078033 211.97939514 -92.72128845 211.97691772 -91.51635742 211.97436523 C-90.27680801 211.97947617 -89.03725861 211.9845871 -87.76014709 211.98985291 C-84.36750583 212.00136094 -80.97510909 212.00382418 -77.58246541 212.00128961 C-74.74701146 212.00021838 -71.91157994 212.00510713 -69.07613081 212.00989503 C-62.38529077 212.02098224 -55.69450688 212.021432 -49.00366211 212.01538086 C-42.1081936 212.00934042 -35.21292911 212.02165552 -28.31749541 212.04295093 C-22.39037276 212.06058073 -16.46331498 212.06656614 -10.53616709 212.06331319 C-6.99918883 212.06150243 -3.46235613 212.06411566 0.07459831 212.07802773 C4.01962127 212.09296491 7.96438538 212.08362383 11.90942383 212.07202148 C13.66062531 212.08348709 13.66062531 212.08348709 15.44720459 212.09518433 C23.2751287 212.04989612 23.2751287 212.04989612 30.26123047 208.69970703 C33.04183228 204.27602233 32.26123047 201.33846072 32.26123047 195.69970703 C-15.25876953 195.69970703 -62.77876953 195.69970703 -111.73876953 195.69970703 Z " fill="#000000" transform="translate(295.73876953125,84.30029296875)"/>
</svg>
